<?xml version="1.0" standalone="no"?><!DOCTYPE svg PUBLIC "-//W3C//DTD SVG 1.1//EN" "http://www.w3.org/Graphics/SVG/1.1/DTD/svg11.dtd"><svg t="1556805989422" class="icon" style="" viewBox="0 0 1024 1024" version="1.1" xmlns="http://www.w3.org/2000/svg" p-id="17947" xmlns:xlink="http://www.w3.org/1999/xlink" width="200" height="200"><defs><style type="text/css"></style></defs><path d="M512 104c55.1 0 108.5 10.8 158.8 32 48.6 20.5 92.2 50 129.7 87.5s66.9 81.1 87.5 129.7c21.3 50.3 32 103.7 32 158.8s-10.8 108.5-32 158.8c-20.5 48.6-50 92.2-87.5 129.7s-81.1 66.9-129.7 87.5c-50.3 21.3-103.7 32-158.8 32s-108.5-10.8-158.8-32c-48.6-20.5-92.2-50-129.7-87.5s-66.9-81.1-87.5-129.7c-21.3-50.3-32-103.7-32-158.8s10.8-108.5 32-158.8c20.5-48.6 50-92.2 87.5-129.7s81.1-66.9 129.7-87.5c50.3-21.2 103.7-32 158.8-32m0-40C264.6 64 64 264.6 64 512s200.6 448 448 448 448-200.6 448-448S759.4 64 512 64z" fill="#707070" p-id="17948"></path><path d="M311.038 635.297l333.657-362.529 93.226 85.801L404.264 721.1z" fill="#707070" p-id="17949"></path><path d="M311.52 635.08l333.558-362.627 28.925 26.606-333.558 362.627zM340.673 661.44l333.804-362.38 31.333 28.861-333.804 362.381zM405 720.7l-94-85.2-56.8 153z" fill="#13227a" p-id="17950" data-spm-anchor-id="a313x.7781069.0.i2" class=""></path><path d="M372.2 691.2L311 635.5l-56.8 153z" fill="#13227a" p-id="17951" data-spm-anchor-id="a313x.7781069.0.i0" class=""></path><path d="M340.5 661.7L311 635.5l-56.8 153z" fill="#707070" p-id="17952" data-spm-anchor-id="a313x.7781069.0.i1" class=""></path><path d="M272.8 738.2l-18.6 50.3 49.2-21.9zM738.2 359.1l39.3-42.6c6.6-7.6 5.5-19.7-3.3-28.4L712 231.3c-8.7-7.6-20.8-7.6-28.4 0l-39.3 42.6 93.9 85.2z" fill="#707070" p-id="17953" data-spm-anchor-id="a313x.7781069.0.i3" class="selected"></path><path d="M774.3 288.1l-49.2-44.8-51.3 56.8 64.5 59 39.3-42.6c6.5-7.7 5.4-19.7-3.3-28.4z" fill="#707070" p-id="17954"></path><path d="M774.3 288.1l-17.5-15.3-51.3 55.7 32.8 30.6 39.3-42.6c6.5-7.7 5.4-19.7-3.3-28.4z" fill="#707070" p-id="17955"></path></svg>